<?xml version="1.0" encoding="UTF-8" standalone="no"?>
<!DOCTYPE svg PUBLIC "-//W3C//DTD SVG 1.1//EN" "http://www.w3.org/Graphics/SVG/1.1/DTD/svg11.dtd">
<svg width="100%" height="100%" viewBox="0 0 512 473" version="1.1" xmlns="http://www.w3.org/2000/svg" xmlns:xlink="http://www.w3.org/1999/xlink" xml:space="preserve" xmlns:serif="http://www.serif.com/" style="fill-rule:evenodd;clip-rule:evenodd;stroke-linejoin:round;stroke-miterlimit:2;">
    <path d="M105.32,230.83C129.73,245.79 143.31,268.32 155.58,288.7L158.3,293.21C207.93,226.01 255.51,162.51 313.72,106.58C375.43,47.26 440.08,4.55 503.57,0.02C507.91,-0.28 511.68,2.99 511.98,7.32C512.17,9.96 511.02,12.4 509.12,13.96C443.34,69.2 383.04,136.02 326.3,211.32C269.39,286.84 224.24,363.55 172.59,453C165.89,464.59 159.08,471.57 150.84,472.28C142.3,473.02 134.34,467.17 126.16,453L125.92,452.55C112.47,429.15 101.28,402.62 90.57,377.19C66.81,320.82 45.4,270.04 9.68,278.57C3.76,279.97 -1.35,274.42 0.32,268.72C6.53,247.62 20.4,229.7 41.6,222.03C63.17,214.24 86.23,219.16 105.32,230.83Z" style="fill:rgb(254,123,6);fill-rule:nonzero;"/>
</svg>
